<svg xmlns="http://www.w3.org/2000/svg" width="25" height="25" viewBox="0 0 25 25" fill="none">
  <path d="M12.5 0C5.59675 0 0 5.59675 0 12.5C0 19.4032 5.59675 25 12.5 25C19.4032 25 25 19.4032 25 12.5C25 5.59675 19.4032 0 12.5 0ZM18.2692 14.4231H12.5C12.245 14.4231 12.0004 14.3218 11.8201 14.1414C11.6398 13.9611 11.5385 13.7166 11.5385 13.4615V4.80769C11.5385 4.55268 11.6398 4.30811 11.8201 4.12778C12.0004 3.94746 12.245 3.84615 12.5 3.84615C12.755 3.84615 12.9996 3.94746 13.1799 4.12778C13.3602 4.30811 13.4615 4.55268 13.4615 4.80769V12.5H18.2692C18.5242 12.5 18.7688 12.6013 18.9491 12.7816C19.1295 12.962 19.2308 13.2065 19.2308 13.4615C19.2308 13.7166 19.1295 13.9611 18.9491 14.1414C18.7688 14.3218 18.5242 14.4231 18.2692 14.4231Z" fill="#96B3FF"/>
</svg>