<svg xmlns="http://www.w3.org/2000/svg" width="22" height="25" viewBox="0 0 22 25" fill="none">
  <path d="M1.46427 25C1.22747 25 1.00037 24.9059 0.832923 24.7385C0.66548 24.571 0.571411 24.3439 0.571411 24.1071V2.01618C0.571475 1.78225 0.632814 1.5524 0.749322 1.34954C0.865831 1.14668 1.03344 0.977877 1.23547 0.859933C1.9107 0.467634 3.27119 0 5.92855 0C8.005 0 10.3275 0.820871 12.3767 1.54464C14.0268 2.12779 15.5854 2.67857 16.6428 2.67857C18.0041 2.6744 19.351 2.39934 20.6049 1.86942C20.7576 1.80496 20.9239 1.7793 21.0889 1.7947C21.2539 1.81011 21.4126 1.86611 21.5507 1.95772C21.6888 2.04932 21.8021 2.17368 21.8805 2.31971C21.9589 2.46574 22 2.6289 22 2.79464V15.0357C21.9998 15.2527 21.9363 15.4649 21.8174 15.6464C21.6984 15.8278 21.5292 15.9707 21.3303 16.0575C20.8443 16.2701 19.0697 16.9643 16.6428 16.9643C15.2957 16.9643 13.6082 16.5658 11.822 16.1434C9.81416 15.6691 7.73826 15.1786 5.92855 15.1786C3.87108 15.1786 2.81806 15.49 2.35713 15.6869V24.1071C2.35713 24.3439 2.26306 24.571 2.09561 24.7385C1.92817 24.9059 1.70107 25 1.46427 25Z" fill="#F46D6D"/>
</svg>